<mxfile host="app.diagrams.net" modified="2021-11-23T06:58:15.120Z" agent="5.0 (Windows NT 10.0; Win64; x64) AppleWebKit/537.36 (KHTML, like Gecko) Chrome/96.0.4664.45 Safari/537.36 Edg/96.0.1054.29" etag="BWbk1rF4RA8dsWaZEWTJ" version="15.8.3" type="github">
  <diagram id="-0o5cr4pHuKrgGTw2OSu" name="Page-1">
    <mxGraphModel dx="1026" dy="752" grid="1" gridSize="10" guides="1" tooltips="1" connect="1" arrows="1" fold="1" page="1" pageScale="1" pageWidth="827" pageHeight="1169" math="0" shadow="0">
      <root>
        <mxCell id="0" />
        <mxCell id="1" parent="0" />
        <mxCell id="5MsrHsCFOJDOxcr9_rJd-3" value="Generar Movimiento" style="edgeStyle=orthogonalEdgeStyle;rounded=0;orthogonalLoop=1;jettySize=auto;html=1;entryX=0;entryY=0.5;entryDx=0;entryDy=0;" edge="1" parent="1" source="5MsrHsCFOJDOxcr9_rJd-1" target="5MsrHsCFOJDOxcr9_rJd-2">
          <mxGeometry x="-0.2" y="20" relative="1" as="geometry">
            <mxPoint as="offset" />
          </mxGeometry>
        </mxCell>
        <mxCell id="5MsrHsCFOJDOxcr9_rJd-1" value="Otros Origenes" style="rounded=1;whiteSpace=wrap;html=1;" vertex="1" parent="1">
          <mxGeometry x="50" y="110" width="60" height="50" as="geometry" />
        </mxCell>
        <mxCell id="5MsrHsCFOJDOxcr9_rJd-9" value="peticiones" style="edgeStyle=orthogonalEdgeStyle;rounded=0;orthogonalLoop=1;jettySize=auto;html=1;entryX=0;entryY=0.5;entryDx=0;entryDy=0;dashed=1;" edge="1" parent="1" source="5MsrHsCFOJDOxcr9_rJd-2" target="5MsrHsCFOJDOxcr9_rJd-8">
          <mxGeometry x="-0.1765" y="20" relative="1" as="geometry">
            <mxPoint y="1" as="offset" />
          </mxGeometry>
        </mxCell>
        <mxCell id="5MsrHsCFOJDOxcr9_rJd-2" value="&lt;font style=&quot;font-size: 16px&quot;&gt;CoreGen&lt;/font&gt;" style="whiteSpace=wrap;html=1;rounded=1;fillColor=#dae8fc;strokeColor=#6c8ebf;" vertex="1" parent="1">
          <mxGeometry x="100" y="212.5" width="100" height="55" as="geometry" />
        </mxCell>
        <mxCell id="5MsrHsCFOJDOxcr9_rJd-11" value="documentos" style="edgeStyle=orthogonalEdgeStyle;rounded=0;orthogonalLoop=1;jettySize=auto;html=1;" edge="1" parent="1" source="5MsrHsCFOJDOxcr9_rJd-4" target="5MsrHsCFOJDOxcr9_rJd-6">
          <mxGeometry relative="1" as="geometry" />
        </mxCell>
        <mxCell id="5MsrHsCFOJDOxcr9_rJd-31" value="&lt;font style=&quot;font-size: 11px&quot;&gt;peticiones&lt;/font&gt;" style="edgeStyle=orthogonalEdgeStyle;rounded=0;orthogonalLoop=1;jettySize=auto;html=1;dashed=1;fontSize=16;entryX=0;entryY=0.5;entryDx=0;entryDy=0;" edge="1" parent="1" source="5MsrHsCFOJDOxcr9_rJd-4" target="5MsrHsCFOJDOxcr9_rJd-30">
          <mxGeometry x="-0.1522" y="10" relative="1" as="geometry">
            <mxPoint x="610" y="130" as="targetPoint" />
            <Array as="points">
              <mxPoint x="500" y="130" />
              <mxPoint x="660" y="130" />
            </Array>
            <mxPoint x="1" as="offset" />
          </mxGeometry>
        </mxCell>
        <mxCell id="5MsrHsCFOJDOxcr9_rJd-4" value="&lt;font style=&quot;font-size: 16px&quot;&gt;Core&lt;/font&gt;" style="whiteSpace=wrap;html=1;rounded=1;fillColor=#dae8fc;strokeColor=#6c8ebf;" vertex="1" parent="1">
          <mxGeometry x="440" y="217.5" width="100" height="45" as="geometry" />
        </mxCell>
        <mxCell id="5MsrHsCFOJDOxcr9_rJd-12" style="edgeStyle=orthogonalEdgeStyle;rounded=0;orthogonalLoop=1;jettySize=auto;html=1;dashed=1;" edge="1" parent="1" source="5MsrHsCFOJDOxcr9_rJd-6" target="5MsrHsCFOJDOxcr9_rJd-13">
          <mxGeometry relative="1" as="geometry">
            <mxPoint x="760" y="240" as="targetPoint" />
          </mxGeometry>
        </mxCell>
        <mxCell id="5MsrHsCFOJDOxcr9_rJd-19" value="" style="edgeStyle=orthogonalEdgeStyle;rounded=0;orthogonalLoop=1;jettySize=auto;html=1;" edge="1" parent="1" source="5MsrHsCFOJDOxcr9_rJd-6" target="5MsrHsCFOJDOxcr9_rJd-17">
          <mxGeometry relative="1" as="geometry" />
        </mxCell>
        <mxCell id="5MsrHsCFOJDOxcr9_rJd-6" value="EAI&lt;br&gt;Publicador&lt;br&gt;de documentos" style="whiteSpace=wrap;html=1;aspect=fixed;" vertex="1" parent="1">
          <mxGeometry x="640" y="200" width="80" height="80" as="geometry" />
        </mxCell>
        <mxCell id="5MsrHsCFOJDOxcr9_rJd-10" value="Insertar Movimiento" style="edgeStyle=orthogonalEdgeStyle;rounded=0;orthogonalLoop=1;jettySize=auto;html=1;exitX=1;exitY=0.5;exitDx=0;exitDy=0;" edge="1" parent="1" source="5MsrHsCFOJDOxcr9_rJd-2" target="5MsrHsCFOJDOxcr9_rJd-4">
          <mxGeometry relative="1" as="geometry">
            <mxPoint x="380" y="210" as="sourcePoint" />
          </mxGeometry>
        </mxCell>
        <mxCell id="5MsrHsCFOJDOxcr9_rJd-16" style="edgeStyle=orthogonalEdgeStyle;rounded=0;orthogonalLoop=1;jettySize=auto;html=1;dashed=1;" edge="1" parent="1" source="5MsrHsCFOJDOxcr9_rJd-8" target="5MsrHsCFOJDOxcr9_rJd-15">
          <mxGeometry relative="1" as="geometry" />
        </mxCell>
        <mxCell id="5MsrHsCFOJDOxcr9_rJd-8" value="EAI&lt;br&gt;Publicador&lt;br&gt;de peticiones CoreGen" style="whiteSpace=wrap;html=1;aspect=fixed;" vertex="1" parent="1">
          <mxGeometry x="170" y="335" width="80" height="80" as="geometry" />
        </mxCell>
        <mxCell id="5MsrHsCFOJDOxcr9_rJd-13" value="Otros &lt;br&gt;Suscriptores" style="ellipse;shape=cloud;whiteSpace=wrap;html=1;" vertex="1" parent="1">
          <mxGeometry x="620" y="335" width="120" height="85" as="geometry" />
        </mxCell>
        <mxCell id="5MsrHsCFOJDOxcr9_rJd-15" value="Otros &lt;br&gt;Suscriptores" style="ellipse;shape=cloud;whiteSpace=wrap;html=1;" vertex="1" parent="1">
          <mxGeometry x="294" y="332.5" width="120" height="85" as="geometry" />
        </mxCell>
        <mxCell id="5MsrHsCFOJDOxcr9_rJd-20" value="Publica Avisos" style="edgeStyle=orthogonalEdgeStyle;rounded=0;orthogonalLoop=1;jettySize=auto;html=1;" edge="1" parent="1" source="5MsrHsCFOJDOxcr9_rJd-17" target="5MsrHsCFOJDOxcr9_rJd-18">
          <mxGeometry relative="1" as="geometry" />
        </mxCell>
        <mxCell id="5MsrHsCFOJDOxcr9_rJd-17" value="&lt;font style=&quot;font-size: 16px&quot;&gt;CoreControl&lt;/font&gt;" style="whiteSpace=wrap;html=1;rounded=1;fillColor=#dae8fc;strokeColor=#6c8ebf;" vertex="1" parent="1">
          <mxGeometry x="760" y="212.5" width="100" height="55" as="geometry" />
        </mxCell>
        <mxCell id="5MsrHsCFOJDOxcr9_rJd-27" value="" style="edgeStyle=orthogonalEdgeStyle;rounded=0;orthogonalLoop=1;jettySize=auto;html=1;dashed=1;fontSize=16;" edge="1" parent="1" source="5MsrHsCFOJDOxcr9_rJd-18" target="5MsrHsCFOJDOxcr9_rJd-26">
          <mxGeometry relative="1" as="geometry" />
        </mxCell>
        <mxCell id="5MsrHsCFOJDOxcr9_rJd-18" value="Publicador&lt;br&gt;de avisos" style="whiteSpace=wrap;html=1;aspect=fixed;" vertex="1" parent="1">
          <mxGeometry x="957" y="200" width="80" height="80" as="geometry" />
        </mxCell>
        <mxCell id="5MsrHsCFOJDOxcr9_rJd-23" value="DB2" style="shape=cylinder3;whiteSpace=wrap;html=1;boundedLbl=1;backgroundOutline=1;size=15;fontSize=16;" vertex="1" parent="1">
          <mxGeometry x="460" y="365" width="60" height="80" as="geometry" />
        </mxCell>
        <mxCell id="5MsrHsCFOJDOxcr9_rJd-25" value="" style="shape=flexArrow;endArrow=classic;html=1;rounded=0;fontSize=16;endWidth=28;endSize=8.33;width=16;" edge="1" parent="1">
          <mxGeometry width="50" height="50" relative="1" as="geometry">
            <mxPoint x="489.5" y="285" as="sourcePoint" />
            <mxPoint x="489.5" y="355" as="targetPoint" />
            <Array as="points">
              <mxPoint x="489.5" y="305" />
              <mxPoint x="489.5" y="315" />
            </Array>
          </mxGeometry>
        </mxCell>
        <mxCell id="5MsrHsCFOJDOxcr9_rJd-26" value="Otros &lt;br&gt;Suscriptores" style="ellipse;shape=cloud;whiteSpace=wrap;html=1;" vertex="1" parent="1">
          <mxGeometry x="937" y="335" width="120" height="85" as="geometry" />
        </mxCell>
        <mxCell id="5MsrHsCFOJDOxcr9_rJd-33" value="" style="edgeStyle=orthogonalEdgeStyle;rounded=0;orthogonalLoop=1;jettySize=auto;html=1;dashed=1;fontSize=11;" edge="1" parent="1" source="5MsrHsCFOJDOxcr9_rJd-30">
          <mxGeometry relative="1" as="geometry">
            <mxPoint x="800" y="127.5" as="targetPoint" />
          </mxGeometry>
        </mxCell>
        <mxCell id="5MsrHsCFOJDOxcr9_rJd-30" value="EAI&lt;br&gt;Publicador&lt;br&gt;de peticiones&lt;br&gt;Core" style="whiteSpace=wrap;html=1;aspect=fixed;" vertex="1" parent="1">
          <mxGeometry x="660" y="87.5" width="80" height="80" as="geometry" />
        </mxCell>
        <mxCell id="5MsrHsCFOJDOxcr9_rJd-32" value="Otros &lt;br&gt;Suscriptores" style="ellipse;shape=cloud;whiteSpace=wrap;html=1;" vertex="1" parent="1">
          <mxGeometry x="800" y="87.5" width="120" height="85" as="geometry" />
        </mxCell>
      </root>
    </mxGraphModel>
  </diagram>
</mxfile>
